# xmcd
#
# Track frame offsets: 
#        150
#        14486
#        30809
#        43038
#        53782
#        64137
#        77860
#        88669
#        98478
#        114757
#        128072
#        142909
#        156726
#        169218
#        182211
#
# Disc length: 2610 seconds
#
# Revision: 0
# Processed by: cddbd v1.5.2PL0 Copyright (c) Steve Scherf et al.
# Submitted via: ExactAudioCopy v1.1
#
DISCID=be0a300f
DTITLE=Various Artist - Sweet Country Ballads [CD2]
DYEAR=2015
DGENRE=Country
TTITLE0=John Denver - Take Me Home, Country Roads
TTITLE1=Ronnie Milsap - It Was Almost Like a Song
TTITLE2=Johnny Cash - Understand Your Man
TTITLE3=Tanya Tucker - Would You Lay With Me (In a Field of Stone)
TTITLE4=George Jones - Walk through This World with Me
TTITLE5=Tammy Wynette - 'Til I Can Make It on My Own
TTITLE6=Hank Locklin - Please Help Me, I’m Falling
TTITLE7=Eddy Arnold - What’s He Doing in My World
TTITLE8=Elvis Presley - Green, Green Grass of Home
TTITLE9=George Jones and Tammy Wynette - We’re Gonna Hold On
TTITLE10=Don Gibson - Woman (Sensuous Woman)
TTITLE11=Jim Ed Brown and Helen Cornelius - I Don’t Want To Have To Ma
TTITLE11=rry You
TTITLE12=Bobby Bare - Four Strong Winds
TTITLE13=David Houston and Tammy Wynette - My Elusive Dreams
TTITLE14=Waylon Jennings - Come with Me
EXTD=
EXTT0=
EXTT1=
EXTT2=
EXTT3=
EXTT4=
EXTT5=
EXTT6=
EXTT7=
EXTT8=
EXTT9=
EXTT10=
EXTT11=
EXTT12=
EXTT13=
EXTT14=
PLAYORDER=
